<svg xmlns="http://www.w3.org/2000/svg" viewBox="0 0 1600 900" preserveAspectRatio="xMidYMid slice"><defs><linearGradient id="bg" x2="0" y2="1"><stop stop-color="#010302"/><stop offset=".55" stop-color="#06120b"/><stop offset="1" stop-color="#010302"/></linearGradient><radialGradient id="greenGlow"><stop stop-color="#35ff77" stop-opacity=".2"/><stop offset="1" stop-color="#35ff77" stop-opacity="0"/></radialGradient><linearGradient id="window" x2="0" y2="1"><stop stop-color="#0b2015"/><stop offset="1" stop-color="#020604"/></linearGradient><pattern id="rain" width="80" height="100" patternUnits="userSpaceOnUse"><path d="M0 0L-35 100M40 0L5 100M80 0L45 100" stroke="#35ff77" stroke-opacity=".045"/></pattern><pattern id="scan" width="4" height="4" patternUnits="userSpaceOnUse"><path d="M0 0H4" stroke="#35ff77" stroke-opacity=".018"/></pattern></defs><rect width="1600" height="900" fill="url(#bg)"/><ellipse cx="1030" cy="390" rx="620" ry="420" fill="url(#greenGlow)"/><g opacity=".78"><rect x="700" y="95" width="800" height="420" rx="4" fill="url(#window)" stroke="#153b27" stroke-width="3"/><path d="M820 95V515M950 95V515M1080 95V515M1210 95V515M1340 95V515M700 205H1500M700 315H1500M700 415H1500" stroke="#173b28" stroke-width="2" opacity=".7"/><g fill="#35ff77" opacity=".25"><rect x="735" y="175" width="30" height="4"/><rect x="875" y="270" width="18" height="4"/><rect x="1005" y="150" width="40" height="4"/><rect x="1145" y="350" width="26" height="4"/><rect x="1270" y="230" width="55" height="4"/><rect x="1410" y="390" width="22" height="4"/></g></g><g fill="#07100c" stroke="#173b29" stroke-width="2" opacity=".96"><path d="M0 700V390h120v310zm135 0V270h90v430zm105 0V430h85v270zm100 0V180h125v520zm145 0V330h92v370zm112 0V240h70v460zm90 0V380h120v320zm140 0V210h88v490zm108 0V300h120v400zm140 0V160h95v540zm115 0V260h125v440z"/></g><g fill="#35ff77" opacity=".3"><path d="M40 470h30v60H40zm155-90h18v90h-18zm155-70h22v45h-22zm110 90h12v70h-12zm145-55h17v90h-17zm110 65h12v50h-12zm150-85h20v75h-20zm115 70h15v65h-15zm150-95h20v55h-20z"/></g><g opacity=".7"><path d="M0 690H1600" stroke="#35ff77" stroke-opacity=".22" stroke-width="2"/><path d="M0 704H1600" stroke="#163627" stroke-opacity=".8"/><rect x="760" y="620" width="500" height="80" fill="#020504" stroke="#12301f"/><path d="M790 640h120m-120 18h200m-200 18h160" stroke="#35ff77" stroke-opacity=".16"/></g><g opacity=".8"><path d="M720 700L590 840h920l-120-140z" fill="#020504" stroke="#153b27" stroke-width="3"/><path d="M650 760h660M625 805h710" stroke="#35ff77" stroke-opacity=".08" stroke-width="2"/><rect x="795" y="718" width="390" height="82" rx="3" fill="#050b07" stroke="#214a31"/><rect x="820" y="735" width="155" height="5" fill="#35ff77" opacity=".2"/><rect x="820" y="750" width="230" height="4" fill="#35ff77" opacity=".12"/><rect x="820" y="764" width="190" height="4" fill="#35ff77" opacity=".1"/><circle cx="1110" cy="754" r="18" fill="none" stroke="#35ff77" stroke-opacity=".22"/><path d="M1098 754h24M1110 742v24" stroke="#35ff77" stroke-opacity=".25"/></g><g opacity=".5"><rect x="1370" y="610" width="130" height="55" fill="#050b07" stroke="#1a412a"/><path d="M1390 628h80M1390 641h52" stroke="#35ff77" stroke-opacity=".2"/><circle cx="1470" cy="650" r="3" fill="#35ff77"/><path d="M40 770h300v5H40zm0 18h210v4H40z" fill="#35ff77" opacity=".12"/></g><rect width="1600" height="900" fill="url(#rain)"/><rect width="1600" height="900" fill="url(#scan)"/></svg>